<svg id="_x33_0" enable-background="new 0 0 64 64" height="512" viewBox="0 0 64 64" width="512" xmlns="http://www.w3.org/2000/svg"><g><g><g><path d="m28 50v-5-3h34v16h-34v-3z" fill="#e6e9ed"/></g><g><circle cx="52" cy="32" fill="#ff826e" r="10"/></g><g><path d="m28 42v7l-4-1v-6l4-1z" fill="#ffc729"/></g><g><path d="m28 41v-4.47c-2.37 1.62-5.07 2.82-8 3.47-2.93-.65-5.63-1.85-8-3.47v5.47h3v4h-3v6h3v4h-3v2l8 4 8-4v-9l-4-1v-6z" fill="#fcd770"/></g><g><path d="m38 7v10.56c0 7.77-3.89 14.78-10 18.97-2.37 1.62-5.07 2.82-8 3.47-2.93-.65-5.63-1.85-8-3.47-6.11-4.19-10-11.2-10-18.97v-10.56h.57c3.08 0 6.13-.43 9.06-1.27 2.94-.85 5.75-2.09 8.37-3.73 5.23 3.27 11.27 5 17.43 5z" fill="#fcd770"/></g><g><path d="m34 11v6.56c0 5.39-2.21 10.35-5.88 13.87l-.01-.01c-.67-.53-1.49-.9-2.4-1.03l-2.71-.39-.81-2.44c1.37-.67 2.39-1.95 2.71-3.49l1.38-2.68c.47-.91.72-1.93.72-2.95 0-1.78-.72-3.39-1.88-4.56-1.17-1.16-2.78-1.88-4.56-1.88h-1.12c-3.56 0-6.44 2.88-6.44 6.44 0 1.02.25 2.04.72 2.95l1.38 2.68c.2.98.68 1.85 1.36 2.53.39.39.85.72 1.35.96l-.81 2.44-2.71.39c-.91.13-1.73.5-2.4 1.03v.01c-3.68-3.51-5.89-8.47-5.89-13.87v-6.56c4.9-.46 9.66-1.67 14-4 4.34 2.33 9.1 3.54 14 4z" fill="#ffeaa7"/></g><g><path d="m26.28 21.39-1.38 2.68c.06-.33.1-.67.1-1.01v-1.3c0-.98-.71-1.81-1.67-1.97l-1.95-.33c-.83-.13-1.57-.52-2.14-1.1l-.01.01-2.34.94c-1.14.46-1.89 1.56-1.89 2.79v.96c0 .34.04.68.1 1.01l-1.38-2.68c-.47-.91-.72-1.93-.72-2.95 0-3.56 2.88-6.44 6.44-6.44h1.12c1.78 0 3.39.72 4.56 1.88 1.16 1.17 1.88 2.78 1.88 4.56 0 1.02-.25 2.04-.72 2.95z" fill="#b27946"/></g><g><path d="m25.71 30.39c.91.13 1.73.5 2.4 1.03l.01.01c-2.23 2.12-4.99 3.72-8.12 4.57-3.12-.85-5.88-2.44-8.11-4.57v-.01c.67-.53 1.49-.9 2.4-1.03l2.71-.39v.07l.11.21c.54 1.09 1.66 1.79 2.89 1.79s2.35-.7 2.89-1.79l.11-.21v-.07z" fill="#b4dd7f"/></g><g><path d="m23 30v.07l-.11.21c-.54 1.09-1.66 1.79-2.89 1.79s-2.35-.7-2.89-1.79l-.11-.21v-.07l.81-2.44c.66.33 1.4.51 2.19.51s1.53-.18 2.19-.51z" fill="#f0d0b4"/></g><g><path d="m25 21.76v1.3c0 .34-.04.68-.1 1.01-.32 1.54-1.34 2.82-2.71 3.49-.66.33-1.4.51-2.19.51s-1.53-.18-2.19-.51c-.5-.24-.96-.57-1.35-.96-.68-.68-1.16-1.55-1.36-2.53-.06-.33-.1-.67-.1-1.01v-.96c0-1.23.75-2.33 1.89-2.79l2.34-.94.01-.01c.57.58 1.31.97 2.14 1.1l1.95.33c.96.16 1.67.99 1.67 1.97z" fill="#f0d0b4"/></g></g><g><path d="m20.261 36.965c8.678-2.347 14.739-10.327 14.739-19.404v-7.472l-.907-.084c-5.122-.478-9.704-1.785-13.62-3.886l-.473-.254-.473.253c-3.916 2.101-8.499 3.408-13.62 3.886l-.907.085v7.472c0 9.077 6.061 17.057 14.739 19.404l.261.071zm-13.261-25.063c4.825-.545 9.192-1.813 13-3.773 3.808 1.96 8.175 3.228 13 3.773v5.659c0 4.811-1.899 9.269-5.044 12.563-.65-.368-1.362-.62-2.108-.727l-2.095-.299-.363-1.088c1.213-.835 2.1-2.103 2.446-3.58l1.333-2.581c.543-1.05.83-2.23.83-3.414 0-4.1-3.335-7.436-7.436-7.436h-1.129c-4.099.001-7.434 3.336-7.434 7.437 0 1.183.287 2.363.83 3.413l1.333 2.581c.346 1.476 1.233 2.745 2.446 3.58l-.363 1.088-2.095.299c-.745.106-1.458.359-2.107.727-3.145-3.293-5.044-7.752-5.044-12.563zm7.374 8.504c-.243-.627-.374-1.297-.374-1.97 0-2.998 2.438-5.436 5.436-5.436h1.129c2.997 0 5.435 2.438 5.435 5.436 0 .656-.122 1.31-.354 1.923-.425-.804-1.199-1.4-2.153-1.559l-1.954-.326c-1.099-.183-2-.953-2.353-2.011l-.238-.715-1.897.633.238.715c.097.291.219.568.363.831l-1.138.456c-.971.388-1.72 1.12-2.14 2.023zm1.626 1.69c0-.822.494-1.551 1.257-1.857l1.786-.714c.626.467 1.366.789 2.168.922l1.953.326c.484.081.836.496.836.986v1.304c0 2.206-1.794 4.001-4 4.002-2.206-.001-4-1.796-4-4.002zm2.437 6.755c.499.135 1.02.214 1.561.214h.004c.541 0 1.062-.079 1.561-.214l.362 1.087c-.399.693-1.118 1.127-1.925 1.127s-1.526-.435-1.925-1.127zm-4.829 2.744c.267-.099.542-.178.827-.219l1.994-.285c.773 1.224 2.101 1.974 3.572 1.974s2.799-.75 3.572-1.974l1.994.285c.285.041.56.12.827.219-1.844 1.519-4.005 2.682-6.392 3.367-2.39-.685-4.55-1.848-6.394-3.367z"/><path d="m23 55h2v2h-2z"/><path d="m23 51h2v2h-2z"/><path d="m57.224 26.364-8.262 9.183-2.255-2.254-1.414 1.414 3.745 3.746 9.673-10.751z"/><path d="m63 32c0-6.065-4.935-11-11-11s-11 4.935-11 11c0 3.72 1.861 7.008 4.695 9h-16.695v-3.937c6.146-4.379 10-11.511 10-19.502v-11.561h-1.566c-5.984 0-11.83-1.676-16.904-4.848l-.53-.331-.53.331c-5.074 3.172-10.92 4.848-16.904 4.848h-1.566v11.561c0 7.991 3.854 15.123 10 19.502v5.937h3v2h-3v8h3v2h-3v3.618l9 4.5 8.236-4.118h34.764v-18h-4.695c2.834-1.992 4.695-5.28 4.695-9zm-20 0c0-4.962 4.038-9 9-9s9 4.038 9 9-4.038 9-9 9-9-4.038-9-9zm-16 15.719-2-.5v-4.438l2-.5zm-24-30.158v-9.564c6.001-.076 11.856-1.739 17-4.825 5.144 3.086 10.999 4.749 17 4.825v9.564c0 10.311-6.979 19.084-17 21.414-10.021-2.33-17-11.103-17-21.414zm10 39.439h3v-6h-3v-4h3v-6h-3v-2.662c1.845 1.055 3.854 1.877 6 2.429v19.615l-6-3zm8 3.382v-19.615c2.146-.551 4.155-1.373 6-2.429v1.881l-4 1v7.562l4 1v7.601zm40-17.382v14h-32v-14z"/><path d="m33 51h2.586l-1.293 1.293 1.414 1.414 1.293-1.293v2.586h2v-2.586l1.293 1.293 1.414-1.414-1.293-1.293h2.586v-2h-2.586l1.293-1.293-1.414-1.414-1.293 1.293v-2.586h-2v2.586l-1.293-1.293-1.414 1.414 1.293 1.293h-2.586z"/><path d="m48.293 52.293 1.414 1.414 1.293-1.293v2.586h2v-2.586l1.293 1.293 1.414-1.414-1.293-1.293h2.586v-2h-2.586l1.293-1.293-1.414-1.414-1.293 1.293v-2.586h-2v2.586l-1.293-1.293-1.414 1.414 1.293 1.293h-2.586v2h2.586z"/></g></g></svg>