<?xml version="1.0" standalone="no"?>
<!DOCTYPE svg PUBLIC "-//W3C//DTD SVG 20010904//EN"
 "http://www.w3.org/TR/2001/REC-SVG-20010904/DTD/svg10.dtd">
<svg version="1.0" xmlns="http://www.w3.org/2000/svg"
 width="700.000000pt" height="700.000000pt" viewBox="0 0 700.000000 700.000000"
 preserveAspectRatio="xMidYMid meet">
<metadata>
Created by potrace 1.14, written by Peter Selinger 2001-2017
</metadata>
<g transform="translate(0.000000,700.000000) scale(0.100000,-0.100000)"
fill="#000000" stroke="none">
<path d="M2090 6851 c-155 -94 -239 -137 -487 -247 -127 -57 -405 -142 -593
-183 -239 -51 -437 -72 -710 -75 l-185 -3 0 -729 c0 -784 2 -827 50 -1079 20
-103 87 -326 128 -425 6 -14 11 -27 12 -30 5 -20 58 -132 103 -220 155 -302
407 -607 687 -830 l110 -89 -1 -313 c0 -172 1 -318 3 -323 2 -6 64 -10 163 -9
l160 1 0 -108 0 -109 -27 -1 c-16 0 -89 -1 -163 -2 l-135 -2 0 -435 0 -435
155 -1 c85 -1 158 -2 163 -3 4 -1 7 -50 7 -109 l0 -108 -152 1 c-84 1 -158 0
-164 -2 -7 -3 -10 -66 -9 -196 1 -106 3 -194 3 -197 1 -3 222 -115 491 -249
l489 -245 448 225 449 224 1895 2 c1042 1 1898 2 1903 2 4 1 7 443 7 984 l0
982 -256 0 -255 0 38 29 c71 54 218 211 266 283 145 219 209 440 202 698 -4
151 -7 176 -30 263 -141 545 -616 913 -1180 915 -142 1 -345 -45 -481 -108
-85 -39 -220 -120 -249 -148 -6 -7 -37 -34 -69 -61 -126 -110 -245 -285 -315
-463 -114 -291 -96 -666 46 -948 80 -159 225 -339 343 -424 23 -16 37 -31 33
-33 -4 -3 -413 -4 -908 -4 l-900 1 -2 215 -3 215 66 50 c98 73 137 108 265
235 291 289 488 605 625 1003 32 93 71 233 80 287 2 14 9 45 14 70 5 25 12 65
15 90 3 25 7 56 10 70 15 91 18 242 20 865 2 385 1 707 -1 715 -3 12 -29 15
-151 16 -322 1 -564 30 -848 100 -323 79 -645 207 -900 357 -27 17 -63 38 -80
47 -16 10 -46 27 -65 38 l-35 21 -95 -58z"/>
</g>
</svg>
